<svg xmlns="http://www.w3.org/2000/svg" width="526" height="601" viewBox="0 0 526 601" fill="none">
  <path
    d="M253.763 598.323L9.0746 457.054C3.5641 453.87 0.168747 447.992 0.168747 441.625V159.086C0.168747 152.719 3.5641 146.841 9.0746 143.657L253.763 2.38788C259.273 -0.79596 266.064 -0.79596 271.575 2.38788L516.263 143.657C521.773 146.841 525.169 152.719 525.169 159.086V441.625C525.169 447.992 521.773 453.87 516.263 457.054L271.575 598.323C266.064 601.507 259.273 601.507 253.763 598.323ZM53.6039 431.349L253.763 546.914C259.273 550.098 266.064 550.098 271.575 546.914L471.734 431.349C477.244 428.165 480.639 422.288 480.639 415.92V184.802C480.639 178.434 477.244 172.556 471.734 169.373L271.575 53.8081C266.064 50.6243 259.273 50.6243 253.763 53.8081L53.6039 169.373C48.0934 172.556 44.698 178.434 44.698 184.802V415.92C44.698 422.288 48.0934 428.165 53.6039 431.349Z"
    fill="url(#paint0_linear_1813_140)" />
  <path
    d="M253.761 94.686L89.0028 189.812C83.4923 192.995 80.097 198.873 80.097 205.241V385.206C80.097 397.93 86.8877 409.697 97.9087 416.054L117.947 427.62C120.919 429.335 124.626 427.197 124.626 423.768V230.957C124.626 224.589 128.022 218.711 133.532 215.527L253.761 146.117C259.272 142.933 266.062 142.933 271.573 146.117L391.802 215.527C397.312 218.711 400.708 224.589 400.708 230.957V369.788C400.708 376.155 397.312 382.033 391.802 385.217L271.573 454.627C266.062 457.811 259.272 457.811 253.761 454.627L213.685 431.494C208.174 428.31 204.779 422.432 204.779 416.065V277.234C204.779 270.866 208.174 264.988 213.685 261.804L253.761 238.671C259.272 235.487 266.062 235.487 271.573 238.671L311.649 261.804C317.16 264.988 320.555 270.866 320.555 277.234V323.511C320.555 329.878 317.16 335.756 311.649 338.94L291.611 350.507C288.639 352.221 284.932 350.084 284.932 346.655V318.19V298.118C284.932 291.75 281.536 285.872 276.026 282.689L267.12 277.545C264.359 275.954 260.975 275.954 258.214 277.545L247.082 283.969C242.952 286.351 240.402 290.771 240.402 295.535V300.356V395.682C240.402 402.072 243.831 407.972 249.375 411.144L253.672 413.593C259.171 416.733 265.929 416.722 271.417 413.549L356.178 364.611C361.689 361.427 365.084 355.55 365.084 349.182V251.485C365.084 245.117 361.689 239.239 356.178 236.055L271.573 187.207C266.062 184.023 259.272 184.023 253.761 187.207L169.155 236.055C163.645 239.239 160.25 245.117 160.25 251.485V441.725C160.25 448.092 163.645 453.97 169.155 457.154L253.761 506.003C259.272 509.187 266.062 509.187 271.573 506.003L436.331 410.877C441.842 407.693 445.237 401.815 445.237 395.448V205.208C445.237 198.84 441.842 192.962 436.331 189.778L271.573 94.6525C266.062 91.4687 259.272 91.4687 253.761 94.6525V94.686Z"
    fill="url(#paint1_linear_1813_140)" />
  <defs>
    <linearGradient id="paint0_linear_1813_140" x1="247.157" y1="43.4266" x2="247.158" y2="699.737"
      gradientUnits="userSpaceOnUse">
      <stop stop-color="#4A47D3" />
      <stop offset="0.541667" stop-color="#8AA6EB" />
      <stop offset="1" stop-color="#C1F6FF" stop-opacity="0" />
    </linearGradient>
    <linearGradient id="paint1_linear_1813_140" x1="251.879" y1="122.347" x2="251.879" y2="576.988"
      gradientUnits="userSpaceOnUse">
      <stop stop-color="#4A47D3" />
      <stop offset="0.541667" stop-color="#8AA6EB" />
      <stop offset="1" stop-color="#C1F6FF" stop-opacity="0" />
    </linearGradient>
  </defs>
</svg>